<svg width="68" height="68" viewBox="0 0 68 68" fill="none" xmlns="http://www.w3.org/2000/svg">
<g filter="url(#filter0_d_6066_345)">
<circle cx="34" cy="30" r="30" fill="white"/>
<path d="M42.0804 19.5791H40.554C40.1322 19.5791 39.7908 19.9205 39.7908 20.3423C39.7908 20.7642 40.1321 21.1056 40.554 21.1056H42.0804C42.5023 21.1056 42.8437 20.7642 42.8437 20.3423C42.8436 19.9205 42.5023 19.5791 42.0804 19.5791Z" fill="#EBA707"/>
<path d="M34.3677 16.9479L33.6045 15.4215C33.4144 15.0443 32.9575 14.8931 32.5804 15.0801C32.2032 15.2687 32.0504 15.7271 32.239 16.1042L33.0022 17.6307C33.1905 18.0063 33.6467 18.1606 34.0264 17.972C34.4034 17.7835 34.5562 17.3251 34.3677 16.9479Z" fill="#EBA707"/>
<path d="M39.3688 15.0801C38.9932 14.893 38.5333 15.0444 38.3447 15.4215L37.5815 16.9479C37.393 17.3251 37.5458 17.7834 37.9229 17.972C38.3037 18.1611 38.7592 18.005 38.947 17.6307L39.7102 16.1042C39.8987 15.7271 39.7459 15.2687 39.3688 15.0801Z" fill="#EBA707"/>
<path d="M31.3954 19.5791H29.869C29.4471 19.5791 29.1057 19.9205 29.1057 20.3423C29.1057 20.7642 29.4471 21.1056 29.869 21.1056H31.3954C31.8172 21.1056 32.1586 20.7642 32.1586 20.3423C32.1586 19.9205 31.8172 19.5791 31.3954 19.5791Z" fill="#EBA707"/>
<path d="M26.8162 27.262H23.7632C23.3418 27.262 23 27.6037 23 28.0252V40.2367C23 40.6581 23.3417 40.9999 23.7632 40.9999H26.8161C27.2376 40.9999 27.5793 40.6582 27.5793 40.2367V28.0252C27.5793 27.6037 27.2377 27.262 26.8162 27.262Z" fill="#EBA707"/>
<path d="M45.8813 29.2852C45.7467 28.1012 44.6407 27.2621 43.4492 27.2621H37.4989C38.0046 26.3566 38.276 23.7956 38.2639 22.7494C38.244 21.0176 36.8099 19.6299 35.0781 19.6299H34.4483C34.0265 19.6299 33.6851 19.9712 33.6851 20.3931C33.6851 22.158 32.9978 25.3436 31.7017 26.6398C30.8294 27.5121 30.0836 27.8282 29.1057 28.317V39.769C30.6029 40.2681 32.5038 41.0001 35.4013 41.0001H40.3939C42.0389 41.0001 43.3201 39.4765 42.6827 37.8667C43.6539 37.6021 44.3701 36.7114 44.3701 35.6575C44.3701 35.3601 44.3127 35.0754 44.2091 34.8138C45.8457 34.3679 46.4481 32.3471 45.3122 31.0782C45.7295 30.612 45.9597 29.9743 45.8813 29.2852Z" fill="#EBA707"/>
</g>
<defs>
<filter id="filter0_d_6066_345" x="0" y="0" width="68" height="68" filterUnits="userSpaceOnUse" color-interpolation-filters="sRGB">
<feFlood flood-opacity="0" result="BackgroundImageFix"/>
<feColorMatrix in="SourceAlpha" type="matrix" values="0 0 0 0 0 0 0 0 0 0 0 0 0 0 0 0 0 0 127 0" result="hardAlpha"/>
<feOffset dy="4"/>
<feGaussianBlur stdDeviation="2"/>
<feComposite in2="hardAlpha" operator="out"/>
<feColorMatrix type="matrix" values="0 0 0 0 0 0 0 0 0 0 0 0 0 0 0 0 0 0 0.25 0"/>
<feBlend mode="normal" in2="BackgroundImageFix" result="effect1_dropShadow_6066_345"/>
<feBlend mode="normal" in="SourceGraphic" in2="effect1_dropShadow_6066_345" result="shape"/>
</filter>
</defs>
</svg>
