<svg width="60" height="60" viewBox="0 0 60 60" fill="none" xmlns="http://www.w3.org/2000/svg">
<circle cx="30" cy="30" r="30" fill="white"/>
<g clip-path="url(#clip0_6066_385)">
<path d="M18.2565 21.6502L20.1684 22.7537C20.3392 22.8536 20.5504 22.8547 20.722 22.7561C20.8939 22.6575 20.9995 22.4743 20.999 22.2763C20.9987 22.0783 20.8923 21.8959 20.7202 21.7979L18.8082 20.6944C18.5448 20.5446 18.2094 20.6357 18.0577 20.8983C17.9063 21.161 17.9949 21.4967 18.2565 21.6502Z" fill="#EBA707"/>
<path d="M20.1683 32.8325L18.2564 33.936C18.0843 34.034 17.9779 34.2164 17.9776 34.4144C17.9771 34.6124 18.0827 34.7956 18.2545 34.8942C18.4261 34.9928 18.6374 34.9917 18.8082 34.8918L20.7201 33.7883C20.8922 33.6903 20.9986 33.5079 20.9989 33.3099C20.9994 33.1119 20.8938 32.9287 20.7219 32.8301C20.5503 32.7315 20.3391 32.7326 20.1683 32.8325Z" fill="#EBA707"/>
<path d="M41.7435 33.936L39.8316 32.8325C39.6608 32.7326 39.4496 32.7315 39.278 32.8301C39.1061 32.9287 39.0005 33.1119 39.001 33.3099C39.0013 33.5079 39.1077 33.6903 39.2799 33.7883L41.1918 34.8918C41.3626 34.9917 41.5738 34.9928 41.7454 34.8942C41.9173 34.7956 42.0229 34.6124 42.0223 34.4144C42.0221 34.2164 41.9156 34.034 41.7435 33.936Z" fill="#EBA707"/>
<path d="M39.5563 22.8276C39.6533 22.8279 39.7484 22.8023 39.8322 22.7538L41.7441 21.6504C41.9162 21.5523 42.0226 21.3699 42.0229 21.1719C42.0234 20.9739 41.9178 20.7907 41.7462 20.6921C41.5743 20.5935 41.3631 20.5946 41.1923 20.6946L39.2804 21.798C39.0644 21.923 38.9588 22.1776 39.0234 22.4187C39.0881 22.6598 39.3068 22.8276 39.5563 22.8276Z" fill="#EBA707"/>
<path d="M35.2414 18.715C35.5054 18.8674 35.8427 18.7769 35.9952 18.5132L37.0986 16.6013C37.2484 16.3378 37.1573 16.0024 36.8947 15.8507C36.632 15.6993 36.2963 15.788 36.1428 16.0495L35.0393 17.9615C34.8871 18.2252 34.9776 18.5627 35.2414 18.715Z" fill="#EBA707"/>
<path d="M30 17.3103C30.3047 17.3103 30.5517 17.0633 30.5517 16.7586V14.5517C30.5517 14.247 30.3047 14 30 14C29.6953 14 29.4482 14.247 29.4482 14.5517V16.7586C29.4482 17.0633 29.6953 17.3103 30 17.3103Z" fill="#EBA707"/>
<path d="M24.0048 18.5132C24.1029 18.6853 24.2853 18.7917 24.4833 18.792C24.6813 18.7925 24.8645 18.6869 24.9631 18.5151C25.0617 18.3435 25.0606 18.1323 24.9607 17.9615L23.8572 16.0495C23.7036 15.788 23.368 15.6993 23.1053 15.8507C22.8427 16.0024 22.7516 16.3378 22.9014 16.6013L24.0048 18.5132Z" fill="#EBA707"/>
<path d="M19.5173 27.7932C19.5173 27.4885 19.2702 27.2415 18.9655 27.2415H16.7586C16.4539 27.2415 16.2069 27.4885 16.2069 27.7932C16.2069 28.0979 16.4539 28.3449 16.7586 28.3449H18.9655C19.2702 28.3449 19.5173 28.0979 19.5173 27.7932Z" fill="#EBA707"/>
<path d="M43.2414 27.2415H41.0345C40.7298 27.2415 40.4828 27.4885 40.4828 27.7932C40.4828 28.0979 40.7298 28.3449 41.0345 28.3449H43.2414C43.5461 28.3449 43.7931 28.0979 43.7931 27.7932C43.7931 27.4885 43.5461 27.2415 43.2414 27.2415Z" fill="#EBA707"/>
<path d="M32.7586 39.9312H27.2414V41.064C28.0458 41.043 29.6137 41.0483 32.7586 41.064V39.9312Z" fill="#EBA707"/>
<path d="M32.7586 42.1661C30.795 42.158 28.3001 42.1507 27.2414 42.1574V43.2415H32.7586V42.1661Z" fill="#EBA707"/>
<path d="M28.3448 44.3447C28.3448 45.2588 29.086 45.9999 30 45.9999C30.9141 45.9999 31.6552 45.2588 31.6552 44.3447H28.3448Z" fill="#EBA707"/>
<path d="M34.0948 34.9844C37.3553 33.1285 38.9599 29.3114 38.004 25.6837C37.0485 22.0558 33.7718 19.5245 30.0202 19.5159C26.2683 19.5073 22.9803 22.0237 22.0081 25.6471C21.0358 29.2707 22.6228 33.0948 25.8747 34.9655C26.4949 35.3249 26.9491 35.9135 27.1393 36.6048L32.854 36.6207C33.0318 35.931 33.4787 35.3416 34.0948 34.9844ZM28.3448 32.7586C28.1985 32.7586 28.0582 32.7004 27.9547 32.597L24.8338 29.4757C24.6245 29.2594 24.6274 28.9151 24.8402 28.7023C25.0531 28.4895 25.3974 28.4865 25.6137 28.6958L28.3448 31.4267L34.1964 25.5746C34.4119 25.3591 34.7616 25.3591 34.9771 25.5746C35.1926 25.7901 35.1926 26.1398 34.9771 26.3553L28.7349 32.597C28.6315 32.7004 28.4911 32.7586 28.3448 32.7586Z" fill="#EBA707"/>
<path d="M32.7586 37.723L27.2414 37.7092V38.8275H32.7586V37.723Z" fill="#EBA707"/>
</g>
<defs>
<clipPath id="clip0_6066_385">
<rect width="32" height="32" fill="white" transform="translate(14 14)"/>
</clipPath>
</defs>
</svg>
