<svg width="207" height="61" viewBox="0 0 207 61" fill="none" xmlns="http://www.w3.org/2000/svg">
<path d="M23.1321 20.3008L12.3198 5.2202H5.04227V55.1549H9.77265V10.1768L23.7559 28.2629L43.4051 0H58.5839V42.2889H49.487V55.1549H53.4897V46.7709H58.5839V60.3223H44.3928V42.2889H25.2633L49.487 8.33123V37.1214H53.4897V5.2202H46.0562L24.0158 36.9633L14.9189 25.2046V60.3751H0V0.105459H14.9189L26.251 15.9243L23.184 20.3535L23.1321 20.3008ZM35.1919 37.1214H44.3408V24.3082L35.1919 37.1214Z" fill="#EBA707"/>
<path d="M79.332 20.4064H78.0844V25.3102H74.8616V9.86056H79.332C81.2034 9.86056 82.6069 10.3351 83.6465 11.2315C84.6342 12.1279 85.154 13.3934 85.154 14.9753C85.154 16.5572 84.6862 17.8754 83.6985 18.93C82.7628 19.9319 81.3073 20.4592 79.332 20.4592V20.4064ZM78.0844 12.8661V17.4008H79.436C80.9955 17.4008 81.7232 16.6626 81.7232 15.1335C81.7232 14.3425 81.5153 13.8153 81.1514 13.4461C80.7875 13.077 80.1637 12.9189 79.28 12.9189H78.0844V12.8661ZM90.976 15.819H96.1223V18.8245H90.976V22.2519H96.85V25.2575H87.7531V9.80783H96.798V12.8134H90.976V15.7662V15.819ZM103.504 25.2575H100.281V9.80783H103.504V16.6626L108.546 9.80783H112.081L106.675 17.0317L112.809 25.2575H108.754L103.452 17.8754V25.2575H103.504ZM123.517 25.2575V12.8134H119.41V15.819C119.41 19.0355 118.994 21.461 118.163 23.0956C117.331 24.7302 116.031 25.5212 114.212 25.5212C113.744 25.5212 113.328 25.4684 113.068 25.363V22.3574C113.536 22.3574 113.848 22.3574 114.004 22.3047C114.94 22.0938 115.564 21.4083 115.824 20.2482C116.083 19.1409 116.239 17.1899 116.239 14.448V9.7551H126.74V25.2048H123.517V25.2575ZM138.8 23.1483H133.03L132.094 25.2575H128.715L135.785 9.49145H136.097L143.322 25.2575H139.683L138.8 23.1483ZM135.941 16.3463L134.329 20.1428H137.552L135.993 16.3463H135.941ZM148.26 9.43872L153.407 19.5628L158.553 9.43872H159.021L163.075 25.2048H159.696L157.617 17.4008L153.511 25.2048H153.043L148.988 17.3481L146.909 25.2048H143.686L147.741 9.43872H148.208H148.26ZM174.875 18.6136H168.637V25.2048H165.414V9.7551H168.637V15.6081H174.875V9.7551H178.098V25.2048H174.875V18.6136ZM190.158 23.0956H184.388L183.452 25.2048H180.073L187.143 9.43872H187.455L194.68 25.2048H191.042L190.158 23.0956ZM187.299 16.2935L185.688 20.09H188.91L187.351 16.2935H187.299ZM203.777 25.1521V19.9319H202.322L199.151 25.1521H195.148L199.047 19.0882C198.215 18.8773 197.591 18.35 197.072 17.559C196.552 16.7681 196.292 15.8717 196.292 14.8698C196.292 13.2352 196.812 11.917 197.799 11.0206C198.839 10.1242 200.087 9.64964 201.646 9.64964H207V25.0993H203.777V25.1521ZM203.777 16.9263V12.7079H201.854C201.178 12.7079 200.658 12.8661 200.243 13.2352C199.879 13.6043 199.671 14.1316 199.671 14.8171C199.671 15.3971 199.879 15.9244 200.243 16.2935C200.606 16.6626 201.126 16.8736 201.802 16.8736H203.725L203.777 16.9263ZM78.0325 50.4094H74.8096V34.9597H78.0325V41.8145L83.0747 34.9597H86.6095L81.2034 42.1836L87.3373 50.4094H83.2827L77.9805 43.0273V50.4094H78.0325ZM91.7038 42.7109C91.7038 44.0292 92.1196 45.2419 92.9514 46.2438C93.7831 47.2457 94.9787 47.7729 96.4861 47.7729C97.8377 47.7729 98.9813 47.2984 99.865 46.3492C100.749 45.4001 101.217 44.1873 101.217 42.7637C101.217 41.4454 100.801 40.2854 99.917 39.2835C99.0852 38.2817 97.9416 37.7544 96.4342 37.7544C95.0306 37.7544 93.887 38.2289 93.0033 39.1781C92.1196 40.1272 91.6518 41.34 91.6518 42.8164L91.7038 42.7109ZM88.3249 42.7109C88.3249 40.4963 89.0527 38.5453 90.6121 37.0162C92.1716 35.4343 94.1469 34.6961 96.5381 34.6961C97.8377 34.6961 99.0333 34.9597 100.125 35.4343C101.217 35.9088 102.1 36.5416 102.724 37.3853C104.024 38.9671 104.647 40.7599 104.647 42.7637C104.647 45.031 103.868 46.9293 102.36 48.4584C100.853 50.0403 98.9293 50.7785 96.5381 50.7785C94.043 50.7785 92.0676 49.9876 90.5602 48.4584C89.1047 46.8765 88.3249 44.9783 88.3249 42.7637V42.7109ZM111.197 34.6433L116.343 44.7674L121.49 34.6433H121.957L126.012 50.4094H122.633L120.554 42.6055L116.447 50.4094H115.979L111.925 42.5527L109.846 50.4094H106.623L110.677 34.6433H111.145H111.197ZM138.644 37.9653H132.354V50.4094H129.131V34.9597H141.919V50.4094H138.696V37.9653H138.644ZM154.654 48.3002H148.884L147.948 50.4094H144.57L151.639 34.6433H151.951L159.177 50.4094H155.538L154.654 48.3002ZM151.795 41.4981L150.184 45.2947H153.407L151.847 41.4981H151.795ZM171.34 43.8182H165.103V50.4094H161.88V34.9597H165.103V40.8127H171.34V34.9597H174.563V50.4094H171.34V43.8182ZM188.754 50.4094V41.7618L179.71 50.7785H179.242V35.0124H182.465V43.6601L191.562 34.6433H192.029V50.4094H188.806H188.754ZM203.777 50.4094V45.1892H202.322L199.151 50.4094H195.148L199.047 44.3455C198.215 44.1346 197.591 43.6073 197.072 42.8164C196.552 42.0254 196.292 41.129 196.292 40.1272C196.292 38.4926 196.812 37.1743 197.799 36.2779C198.839 35.3815 200.087 34.907 201.646 34.907H207V50.3567H203.777V50.4094ZM203.777 42.1836V37.9653H201.854C201.178 37.9653 200.658 38.1235 200.243 38.4926C199.879 38.8617 199.671 39.389 199.671 40.0745C199.671 40.6545 199.879 41.1818 200.243 41.5509C200.606 41.92 201.126 42.1309 201.802 42.1309H203.725L203.777 42.1836Z" fill="#FEFEFE"/>
</svg>
