<svg width="68" height="68" viewBox="0 0 68 68" fill="none" xmlns="http://www.w3.org/2000/svg">
<g filter="url(#filter0_d_6066_327)">
<circle cx="34" cy="30" r="30" fill="white"/>
<g clip-path="url(#clip0_6066_327)">
<path d="M18.8937 33.3128L20.9819 33.6551C21.3118 35.254 21.9432 36.7756 22.8423 38.1385L21.6056 39.8644C21.3491 40.2137 21.3535 40.6903 21.6165 41.0349C21.9283 41.416 22.2596 41.7808 22.6091 42.1277C22.9616 42.4809 23.325 42.8063 23.6993 43.1209C24.044 43.3844 24.5213 43.3888 24.8709 43.1317L26.5957 41.8945C27.9572 42.7941 29.4777 43.4259 31.0758 43.756L31.4176 45.8459C31.4827 46.2734 31.8237 46.6056 32.2528 46.6594C32.55 46.6931 32.8495 46.7137 33.1554 46.7289C33.3039 46.7361 33.449 46.6825 33.5571 46.5803C33.6652 46.4782 33.727 46.3363 33.7281 46.1876V41.8409C33.7266 41.5479 33.4938 41.3084 33.2009 41.2985C27.7198 41.0143 23.4214 36.4873 23.4214 30.9988C23.4214 25.5103 27.7198 20.9832 33.2009 20.6991C33.4938 20.6892 33.7266 20.4497 33.7281 20.1567V15.8138C33.7274 15.6651 33.666 15.5232 33.5582 15.4207C33.4504 15.3183 33.3055 15.2644 33.157 15.2713C32.8521 15.284 32.5508 15.3054 32.2528 15.3353C31.8236 15.3938 31.4839 15.7274 31.4175 16.1554L31.0758 18.2453C29.4777 18.5758 27.9572 19.2077 26.5956 20.1073L24.8708 18.8696C24.5213 18.6124 24.044 18.6168 23.6993 18.8804C23.3192 19.1927 22.9553 19.5241 22.609 19.8735C22.257 20.218 21.9255 20.5829 21.6164 20.9664C21.3523 21.3114 21.3479 21.7893 21.6056 22.1391L22.8422 23.865C21.9433 25.2273 21.3119 26.7483 20.9818 28.3467L18.8936 28.6885C18.466 28.7538 18.1338 29.0951 18.08 29.5243C17.9732 30.4977 17.9732 31.4798 18.08 32.4532C18.1283 32.8895 18.4606 33.2407 18.8937 33.3128Z" fill="#EBA707"/>
<path d="M33.2095 22.881C28.9244 23.1525 25.588 26.707 25.588 31.0006C25.588 35.2942 28.9245 38.8487 33.2095 39.1202C33.3458 39.1258 33.4785 39.0753 33.5765 38.9803C33.6745 38.8854 33.7292 38.7544 33.728 38.6179V23.3833C33.7293 23.2468 33.6746 23.1158 33.5765 23.0209C33.4785 22.9259 33.3458 22.8754 33.2095 22.881Z" fill="#EBA707"/>
<path d="M37.5247 23.4072H34.8127V24.4919H37.5247C38.4222 24.4892 39.1492 23.7623 39.1518 22.8648V19.5106C39.899 19.2465 40.3472 18.4825 40.2132 17.7014C40.0792 16.9203 39.402 16.3494 38.6094 16.3494C37.817 16.3494 37.1397 16.9203 37.0057 17.7014C36.8717 18.4825 37.3198 19.2465 38.067 19.5106V22.8648C38.067 23.1643 37.8242 23.4072 37.5247 23.4072Z" fill="#EBA707"/>
<path d="M34.8127 26.6615H40.2366C40.5362 26.6615 40.779 26.4186 40.779 26.1191C40.779 25.8195 40.5362 25.5767 40.2366 25.5767H34.8127V26.6615Z" fill="#EBA707"/>
<path d="M34.8127 38.594H37.5246C37.8242 38.594 38.067 38.8369 38.067 39.1364V42.4906C37.3198 42.7547 36.8717 43.5187 37.0057 44.2998C37.1397 45.0809 37.8169 45.6518 38.6094 45.6518C39.4019 45.6518 40.0792 45.0809 40.2132 44.2998C40.3472 43.5187 39.899 42.7547 39.1518 42.4906V39.1364C39.1492 38.2389 38.4222 37.512 37.5247 37.5093H34.8127V38.594H34.8127Z" fill="#EBA707"/>
<path d="M42.9485 33.1702H34.8127V34.2549H42.9485C43.2481 34.2549 43.4909 34.4978 43.4909 34.7973V37.6091C42.7438 37.8732 42.2956 38.6373 42.4296 39.4184C42.5636 40.1994 43.2408 40.7704 44.0333 40.7704C44.8258 40.7704 45.5031 40.1994 45.6371 39.4184C45.7711 38.6373 45.3229 37.8732 44.5758 37.6091V34.7973C44.573 33.8998 43.8461 33.1728 42.9485 33.1702Z" fill="#EBA707"/>
<path d="M48.3724 29.3735C47.6854 29.3764 47.0741 29.8105 46.8451 30.4583H34.8127V31.5431H46.8451C47.1222 32.3212 47.9392 32.7674 48.7437 32.5801C49.5482 32.3928 50.084 31.6317 49.989 30.8112C49.894 29.9907 49.1984 29.3721 48.3724 29.3735Z" fill="#EBA707"/>
<path d="M40.779 35.882C40.779 35.5824 40.5362 35.3396 40.2366 35.3396H34.8127V36.4244H40.2366C40.5362 36.4244 40.779 36.1816 40.779 35.882Z" fill="#EBA707"/>
<path d="M44.5757 27.204V24.3922C45.3229 24.1281 45.7711 23.364 45.6371 22.583C45.5031 21.8019 44.8259 21.231 44.0333 21.231C43.2408 21.231 42.5636 21.8019 42.4296 22.583C42.2956 23.364 42.7437 24.1281 43.4909 24.3922V27.204C43.4909 27.5036 43.2481 27.7464 42.9485 27.7464H34.8127V28.8312H42.9485C43.8461 28.8284 44.5731 28.1015 44.5757 27.204Z" fill="#EBA707"/>
</g>
</g>
<defs>
<filter id="filter0_d_6066_327" x="0" y="0" width="68" height="68" filterUnits="userSpaceOnUse" color-interpolation-filters="sRGB">
<feFlood flood-opacity="0" result="BackgroundImageFix"/>
<feColorMatrix in="SourceAlpha" type="matrix" values="0 0 0 0 0 0 0 0 0 0 0 0 0 0 0 0 0 0 127 0" result="hardAlpha"/>
<feOffset dy="4"/>
<feGaussianBlur stdDeviation="2"/>
<feComposite in2="hardAlpha" operator="out"/>
<feColorMatrix type="matrix" values="0 0 0 0 0 0 0 0 0 0 0 0 0 0 0 0 0 0 0.25 0"/>
<feBlend mode="normal" in2="BackgroundImageFix" result="effect1_dropShadow_6066_327"/>
<feBlend mode="normal" in="SourceGraphic" in2="effect1_dropShadow_6066_327" result="shape"/>
</filter>
<clipPath id="clip0_6066_327">
<rect width="32" height="32" fill="white" transform="translate(18 15)"/>
</clipPath>
</defs>
</svg>
